<?xml version="1.0" encoding="UTF-8" standalone="no"?>
<!-- Created with Inkscape (http://www.inkscape.org/) -->

<svg
   width="211.66667mm"
   height="211.66667mm"
   viewBox="0 0 211.66667 211.66667"
   version="1.1"
   id="svg1"
   xml:space="preserve"
   sodipodi:docname="sun4.svg"
   xmlns:inkscape="http://www.inkscape.org/namespaces/inkscape"
   xmlns:sodipodi="http://sodipodi.sourceforge.net/DTD/sodipodi-0.dtd"
   xmlns="http://www.w3.org/2000/svg"
   xmlns:svg="http://www.w3.org/2000/svg"><sodipodi:namedview
     id="namedview1"
     pagecolor="#ffffff"
     bordercolor="#000000"
     borderopacity="0.25"
     inkscape:showpageshadow="2"
     inkscape:pageopacity="0.0"
     inkscape:pagecheckerboard="0"
     inkscape:deskcolor="#d1d1d1"
     inkscape:document-units="mm" /><defs
     id="defs1" /><g
     id="layer1"
     transform="translate(0.68210185,-42.666667)"
     style="fill:#f7dcb6;fill-opacity:1"><g
       style="fill:#f7dcb6;fill-opacity:1"
       id="g1"
       transform="matrix(8.8194444,0,0,8.8194444,-0.68210185,42.666667)"><path
         d="m 11,1 c 0,-0.552285 0.4477,-1 1,-1 0.5523,0 1,0.447715 1,1 V 3 C 13,3.55228 12.5523,4 12,4 11.4477,4 11,3.55228 11,3 Z"
         fill="#0f0f0f"
         id="path1"
         style="fill:#f7dcb6;fill-opacity:1" /><path
         fill-rule="evenodd"
         clip-rule="evenodd"
         d="m 18,12 c 0,3.3137 -2.6863,6 -6,6 -3.31371,0 -6,-2.6863 -6,-6 0,-3.31371 2.68629,-6 6,-6 3.3137,0 6,2.68629 6,6 z m -9.93833,0 c 0,2.1751 1.76325,3.9383 3.93833,3.9383 2.1751,0 3.9383,-1.7632 3.9383,-3.9383 C 15.9383,9.82492 14.1751,8.06167 12,8.06167 9.82492,8.06167 8.06167,9.82492 8.06167,12 Z"
         fill="#0f0f0f"
         id="path2"
         style="fill:#f7dcb6;fill-opacity:1" /><path
         d="m 20.4853,3.51472 c -0.3906,-0.39053 -1.0237,-0.39053 -1.4142,0 l -1.4143,1.41421 c -0.3905,0.39053 -0.3905,1.02369 0,1.41422 0.3906,0.39052 1.0237,0.39052 1.4143,0 l 1.4142,-1.41422 c 0.3905,-0.39052 0.3905,-1.02369 0,-1.41421 z"
         fill="#0f0f0f"
         id="path3"
         style="fill:#f7dcb6;fill-opacity:1" /><path
         d="M 1,13 C 0.447715,13 0,12.5523 0,12 0,11.4477 0.447715,11 1,11 h 2 c 0.55228,0 1,0.4477 1,1 0,0.5523 -0.44772,1 -1,1 z"
         fill="#0f0f0f"
         id="path4"
         style="fill:#f7dcb6;fill-opacity:1" /><path
         d="m 3.51472,3.51472 c -0.39052,0.39052 -0.39052,1.02369 0,1.41421 l 1.41422,1.41422 c 0.39052,0.39052 1.02369,0.39052 1.41421,0 0.39053,-0.39053 0.39053,-1.02369 0,-1.41422 L 4.92894,3.51472 c -0.39053,-0.39053 -1.02369,-0.39053 -1.41422,0 z"
         fill="#0f0f0f"
         id="path5"
         style="fill:#f7dcb6;fill-opacity:1" /><path
         d="m 11,21 c 0,-0.5523 0.4477,-1 1,-1 0.5523,0 1,0.4477 1,1 v 2 c 0,0.5523 -0.4477,1 -1,1 -0.5523,0 -1,-0.4477 -1,-1 z"
         fill="#0f0f0f"
         id="path6"
         style="fill:#f7dcb6;fill-opacity:1" /><path
         d="m 6.34315,17.6569 c -0.39052,-0.3906 -1.02369,-0.3906 -1.41421,0 l -1.41421,1.4142 c -0.39053,0.3905 -0.39053,1.0237 0,1.4142 0.39052,0.3905 1.02369,0.3905 1.41421,0 l 1.41421,-1.4142 c 0.39053,-0.3906 0.39053,-1.0237 0,-1.4142 z"
         fill="#0f0f0f"
         id="path7"
         style="fill:#f7dcb6;fill-opacity:1" /><path
         d="m 21,13 c -0.5523,0 -1,-0.4477 -1,-1 0,-0.5523 0.4477,-1 1,-1 h 2 c 0.5523,0 1,0.4477 1,1 0,0.5523 -0.4477,1 -1,1 z"
         fill="#0f0f0f"
         id="path8"
         style="fill:#f7dcb6;fill-opacity:1" /><path
         d="m 17.6568,17.6569 c -0.3905,0.3905 -0.3905,1.0236 0,1.4142 l 1.4143,1.4142 c 0.3905,0.3905 1.0236,0.3905 1.4142,0 0.3905,-0.3905 0.3905,-1.0237 0,-1.4142 l -1.4142,-1.4142 c -0.3906,-0.3906 -1.0237,-0.3906 -1.4143,0 z"
         fill="#0f0f0f"
         id="path9"
         style="fill:#f7dcb6;fill-opacity:1" /></g></g></svg>
